# Blender v2.79 (sub 0) OBJ File: ''
# www.blender.org
mtllib handle_side_top_side.mtl
o Icosphere
v 0.074704 1.349359 -0.984056
v -0.076355 1.332236 -1.934593
v -0.059671 2.201433 -0.801668
v -0.072535 2.159762 -1.948677
v 0.220882 1.862285 -1.443096
v -0.091750 2.136419 -1.423395
v -0.237421 1.024895 -0.966390
v -0.211629 1.391176 -0.487335
v 0.054660 1.196663 -1.413765
v -0.313001 1.025103 -1.746207
v -0.409503 1.391723 -2.220042
v 0.265926 1.654382 -1.366817
v 0.154667 1.595864 -1.719537
v -0.245487 2.155960 -0.684334
v 0.155391 1.788622 -1.092797
v 0.011995 1.789877 -1.807667
v -0.490074 1.876102 -1.859914
v 0.127017 2.069671 -1.125953
v -0.326058 2.545775 -0.512909
v -0.523932 2.577615 -2.201430
v 0.068134 2.107380 -1.732174
v -0.079368 2.275807 -0.908905
v 0.136820 2.045004 -1.424613
v -0.422559 2.228025 -1.126443
v -0.498140 2.289637 -1.727750
v -0.189472 2.243205 -1.788975
v -0.460350 2.173819 -1.337841
v -0.228558 1.814323 -0.822394
v -0.000880 1.589899 -0.882696
vn 0.7108 -0.6726 0.2058
vn 0.8982 -0.4258 0.1094
vn 0.6568 0.0811 -0.7497
vn 0.9132 -0.0683 0.4018
vn 0.6160 0.0979 -0.7817
vn 0.7997 0.5521 0.2360
vn 0.6515 0.7541 0.0831
vn 0.8981 0.4247 -0.1144
vn 0.3668 0.9148 0.1692
vn 0.4511 0.8889 0.0795
vn 0.4815 0.8705 -0.1022
vn 0.1890 0.9550 0.2285
vn 0.2247 0.8380 0.4972
vn 0.0389 0.9662 -0.2547
vn 0.0318 0.9645 -0.2621
vn 0.1809 0.8614 -0.4746
vn 0.8470 0.4968 0.1890
vn 0.3582 0.8990 -0.2522
vn 0.6862 0.7265 -0.0375
vn 0.9083 0.4183 -0.0047
vn 0.9206 0.1468 -0.3620
vn 0.6023 0.0823 -0.7940
vn 0.8365 -0.0177 -0.5477
vn 0.1025 -0.4314 -0.8963
vn 0.5594 -0.2341 0.7952
vn 0.8817 0.1421 0.4499
vn 0.9400 0.1320 0.3145
vn 0.9603 0.2519 0.1195
vn 0.0376 -0.3484 -0.9366
vn 0.1846 0.6060 -0.7738
vn 0.5603 -0.2622 0.7857
vn 0.5374 -0.2930 0.7908
vn 0.8669 0.0641 0.4943
vn 0.9454 0.0899 -0.3131
vn 0.8945 -0.3906 -0.2174
vn 0.8268 -0.4577 -0.3271
vn 0.4009 -0.6832 -0.6103
vn 0.6324 -0.6959 -0.3402
vn 0.4551 -0.8893 -0.0443
vn 0.6613 -0.6126 0.4328
vn 0.1584 0.9506 0.2670
vn 0.6410 0.4921 0.5890
vn 0.8022 0.0005 0.5971
vn 0.5533 0.3594 0.7515
usemtl None
s off
f 1//1 7//1 9//1
f 1//2 9//2 12//2
f 2//3 11//3 16//3
f 1//4 12//4 15//4
f 2//5 16//5 13//5
f 3//6 18//6 22//6
f 4//7 20//7 26//7
f 5//8 21//8 23//8
f 23//9 26//9 6//9
f 23//10 21//10 26//10
f 21//11 4//11 26//11
f 26//12 25//12 6//12
f 26//13 20//13 25//13
f 24//14 6//14 27//14
f 24//15 22//15 6//15
f 24//16 19//16 22//16
f 19//17 3//17 22//17
f 22//18 23//18 6//18
f 22//19 18//19 23//19
f 18//20 5//20 23//20
f 13//21 21//21 5//21
f 13//22 16//22 21//22
f 16//23 4//23 21//23
f 17//24 20//24 4//24
f 14//25 3//25 19//25
f 15//26 18//26 3//26
f 15//27 12//27 18//27
f 12//28 5//28 18//28
f 16//29 17//29 4//29
f 16//30 11//30 17//30
f 14//31 15//31 3//31
f 14//32 28//32 15//32
f 8//33 1//33 29//33
f 12//34 13//34 5//34
f 12//35 9//35 13//35
f 9//36 2//36 13//36
f 10//37 11//37 2//37
f 9//38 10//38 2//38
f 9//39 7//39 10//39
f 7//40 1//40 8//40
f 25//41 27//41 6//41
f 29//42 28//42 8//42
f 15//43 29//43 1//43
f 28//44 29//44 15//44
