# Blender v2.79 (sub 0) OBJ File: ''
# www.blender.org
mtllib handle_side.mtl
o Icosphere
v 0.130036 1.331880 -0.740447
v 0.001450 1.332236 -2.067162
v 0.072433 2.340552 -0.320756
v -0.135624 2.341126 -1.781702
v 0.428090 2.011046 -1.303025
v -0.091750 2.964284 -1.388103
v -0.237421 1.024895 -0.966390
v -0.211629 1.391176 -0.331968
v 0.168141 1.196663 -1.413765
v -0.313001 1.025103 -1.746207
v -0.409503 1.391723 -2.220042
v 0.386066 1.595655 -1.055847
v 0.282681 1.595864 -1.608286
v -0.245487 1.984058 -0.085276
v 0.209870 1.789331 -0.387249
v 0.011995 1.789877 -1.744437
v -0.490074 1.984733 -1.859914
v 0.403986 2.188536 -0.809160
v -0.326058 2.577069 -0.320560
v -0.523932 2.577615 -2.201430
v 0.319387 2.188874 -1.615401
v 0.079502 2.748836 -0.767941
v 0.312680 2.555157 -1.324759
v -0.422559 2.943688 -0.947932
v -0.498140 2.943897 -1.727750
v -0.042790 2.749174 -1.912376
vn 0.5561 -0.8082 0.1938
vn 0.7978 -0.5809 0.1618
vn 0.3618 0.5317 -0.7658
vn 0.8449 -0.4114 0.3418
vn 0.6338 0.4359 -0.6389
vn 0.8023 0.4345 0.4094
vn 0.5716 -0.3653 -0.7347
vn 0.9555 0.1938 -0.2222
vn 0.7115 0.6710 -0.2089
vn 0.8509 0.3360 -0.4038
vn 0.2193 -0.3425 -0.9136
vn 0.2457 0.9046 -0.3482
vn 0.0877 0.7857 -0.6123
vn -0.0547 0.9985 0.0056
vn 0.2720 0.9298 0.2479
vn 0.1630 0.8626 0.4790
vn 0.4001 0.6736 0.6214
vn 0.7064 0.7060 0.0502
vn 0.8555 0.4814 0.1908
vn 0.9781 0.2064 -0.0264
vn 0.9312 -0.0619 -0.3593
vn 0.4276 -0.0373 -0.9032
vn 0.3523 0.0311 -0.9354
vn 0.5552 -0.3911 -0.7340
vn 0.2294 0.3857 0.8936
vn 0.8390 0.1460 0.5241
vn 0.9444 -0.1502 0.2924
vn 0.9958 -0.0592 0.0699
vn 0.2217 -0.0065 -0.9751
vn 0.3775 0.5176 -0.7679
vn 0.5644 0.0413 0.8245
vn 0.4207 -0.3279 0.8459
vn 0.5981 -0.5526 0.5805
vn 0.9621 -0.2045 -0.1801
vn 0.9213 -0.3484 -0.1725
vn 0.8665 -0.3964 -0.3033
vn 0.1197 -0.7733 -0.6227
vn 0.4956 -0.8166 -0.2959
vn 0.3569 -0.9335 -0.0348
vn 0.3954 -0.8023 0.4472
usemtl None
s off
f 1//1 7//1 9//1
f 1//2 9//2 12//2
f 2//3 11//3 16//3
f 1//4 12//4 15//4
f 2//5 16//5 13//5
f 3//6 18//6 22//6
f 4//7 20//7 26//7
f 5//8 21//8 23//8
f 23//9 26//9 6//9
f 23//10 21//10 26//10
f 21//11 4//11 26//11
f 26//12 25//12 6//12
f 26//13 20//13 25//13
f 25//14 24//14 6//14
f 24//15 22//15 6//15
f 24//16 19//16 22//16
f 19//17 3//17 22//17
f 22//18 23//18 6//18
f 22//19 18//19 23//19
f 18//20 5//20 23//20
f 13//21 21//21 5//21
f 13//22 16//22 21//22
f 16//23 4//23 21//23
f 17//24 20//24 4//24
f 14//25 3//25 19//25
f 15//26 18//26 3//26
f 15//27 12//27 18//27
f 12//28 5//28 18//28
f 16//29 17//29 4//29
f 16//30 11//30 17//30
f 14//31 15//31 3//31
f 14//32 8//32 15//32
f 8//33 1//33 15//33
f 12//34 13//34 5//34
f 12//35 9//35 13//35
f 9//36 2//36 13//36
f 10//37 11//37 2//37
f 9//38 10//38 2//38
f 9//39 7//39 10//39
f 7//40 1//40 8//40
