# Blender v2.79 (sub 0) OBJ File: ''
# www.blender.org
mtllib handle_side_top.mtl
o Icosphere
v 0.130036 1.331880 -0.740447
v 0.001450 1.332236 -2.067162
v 0.072433 2.272903 -0.451890
v -0.072535 2.159762 -1.948677
v 0.373440 1.862285 -1.303025
v -0.091750 2.136419 -1.331343
v -0.237421 1.024895 -0.966390
v -0.211629 1.391176 -0.331968
v 0.168141 1.196663 -1.413765
v -0.313001 1.025103 -1.746207
v -0.409503 1.391723 -2.220042
v 0.386066 1.595655 -1.055847
v 0.282681 1.595864 -1.608286
v -0.245487 1.984058 -0.085276
v 0.209870 1.789331 -0.387249
v 0.011995 1.789877 -1.807667
v -0.490074 1.876102 -1.859914
v 0.287077 2.051342 -0.809160
v -0.326058 2.636321 -0.452326
v -0.523932 2.577615 -2.201430
v 0.092659 2.107380 -1.732174
v 0.079502 2.182230 -0.822580
v 0.220058 2.045004 -1.324759
v -0.422559 2.228025 -0.947932
v -0.498140 2.373010 -1.727750
v -0.189472 2.403659 -1.912376
v -0.460350 2.173819 -1.337841
vn 0.5561 -0.8082 0.1938
vn 0.7978 -0.5809 0.1618
vn 0.3677 0.4523 -0.8125
vn 0.8449 -0.4114 0.3418
vn 0.7032 0.3384 -0.6254
vn 0.5323 0.8246 -0.1915
vn 0.7083 0.4236 -0.5646
vn 0.7663 0.6262 -0.1438
vn 0.2544 0.8942 0.3685
vn 0.7581 0.6370 -0.1395
vn 0.7630 0.4367 -0.4765
vn 0.1450 0.9079 0.3932
vn 0.1404 0.9117 0.3862
vn 0.1024 0.9839 -0.1467
vn 0.1221 0.9840 -0.1297
vn 0.2276 0.7293 -0.6452
vn 0.6646 0.7286 -0.1655
vn 0.2803 0.9430 -0.1793
vn 0.5354 0.8408 -0.0799
vn 0.7677 0.6317 -0.1076
vn 0.8690 0.2148 -0.4458
vn 0.6084 0.0340 -0.7929
vn 0.7875 -0.0541 -0.6139
vn 0.1025 -0.4314 -0.8963
vn 0.4381 0.4813 0.7592
vn 0.8884 0.2991 0.3483
vn 0.9693 0.0857 0.2306
vn 0.9819 0.1518 0.1136
vn 0.0376 -0.3484 -0.9366
vn 0.1846 0.6060 -0.7738
vn 0.6100 0.2728 0.7439
vn 0.4207 -0.3279 0.8459
vn 0.5981 -0.5526 0.5805
vn 0.9755 -0.1231 -0.1826
vn 0.9213 -0.3484 -0.1725
vn 0.8665 -0.3964 -0.3033
vn 0.1197 -0.7733 -0.6227
vn 0.4956 -0.8166 -0.2959
vn 0.3569 -0.9335 -0.0348
vn 0.3954 -0.8023 0.4472
vn 0.0825 0.8907 0.4470
usemtl None
s off
f 1//1 7//1 9//1
f 1//2 9//2 12//2
f 2//3 11//3 16//3
f 1//4 12//4 15//4
f 2//5 16//5 13//5
f 3//6 18//6 22//6
f 4//7 20//7 26//7
f 5//8 21//8 23//8
f 23//9 26//9 6//9
f 23//10 21//10 26//10
f 21//11 4//11 26//11
f 26//12 25//12 6//12
f 26//13 20//13 25//13
f 24//14 6//14 27//14
f 24//15 22//15 6//15
f 24//16 19//16 22//16
f 19//17 3//17 22//17
f 22//18 23//18 6//18
f 22//19 18//19 23//19
f 18//20 5//20 23//20
f 13//21 21//21 5//21
f 13//22 16//22 21//22
f 16//23 4//23 21//23
f 17//24 20//24 4//24
f 14//25 3//25 19//25
f 15//26 18//26 3//26
f 15//27 12//27 18//27
f 12//28 5//28 18//28
f 16//29 17//29 4//29
f 16//30 11//30 17//30
f 14//31 15//31 3//31
f 14//32 8//32 15//32
f 8//33 1//33 15//33
f 12//34 13//34 5//34
f 12//35 9//35 13//35
f 9//36 2//36 13//36
f 10//37 11//37 2//37
f 9//38 10//38 2//38
f 9//39 7//39 10//39
f 7//40 1//40 8//40
f 25//41 27//41 6//41
