# Blender v2.79 (sub 0) OBJ File: ''
# www.blender.org
mtllib handle_top.mtl
o Icosphere
v 0.075202 1.331880 -0.740447
v 0.001450 1.332236 -2.067162
v 0.072433 2.242570 -0.320756
v -0.135624 2.442995 -2.392157
v 0.204754 1.635056 -1.458232
v -0.091750 2.100870 -1.388103
v -0.237421 1.024895 -0.966390
v -0.211629 1.391176 -0.331968
v -0.030244 1.196663 -1.413765
v -0.313001 1.025103 -1.746207
v -0.409503 1.391723 -2.373580
v 0.137168 1.473798 -1.055847
v 0.163089 1.517178 -1.731358
v -0.245487 1.984058 -0.085276
v 0.209870 1.789331 -0.557094
v 0.011995 1.789877 -2.313240
v -0.490074 1.984733 -2.608864
v 0.272717 1.928502 -0.809160
v -0.326058 2.656740 -0.449901
v -0.523932 2.702657 -2.180769
v 0.111826 1.902854 -2.070946
v 0.013628 2.203470 -0.767941
v 0.221600 1.853711 -1.436528
v -0.422559 2.229290 -1.106692
v -0.498140 2.220710 -1.592261
v -0.042790 2.175530 -2.029724
vn 0.6858 -0.7268 0.0386
vn 0.8782 -0.4765 -0.0418
vn 0.5033 -0.4182 -0.7562
vn 0.9522 -0.3010 0.0516
vn 0.9213 -0.2004 -0.3331
vn 0.7076 0.6897 -0.1534
vn 0.6437 0.6852 0.3408
vn 0.9829 -0.0584 -0.1746
vn 0.6264 0.7673 0.1371
vn 0.8575 0.5028 -0.1094
vn 0.8709 0.4746 0.1272
vn 0.2202 0.9669 0.1293
vn 0.5565 0.6546 0.5117
vn 0.3123 0.9477 -0.0654
vn 0.2073 0.9589 -0.1939
vn 0.4552 0.7142 -0.5317
vn 0.7356 0.6596 -0.1544
vn 0.5810 0.7813 -0.2280
vn 0.7101 0.6901 -0.1401
vn 0.9949 -0.0694 -0.0728
vn 0.9886 -0.0010 -0.1504
vn 0.9368 -0.1527 -0.3148
vn 0.8881 0.1482 -0.4350
vn -0.1285 0.5034 -0.8544
vn 0.2306 0.4849 0.8436
vn 0.9437 0.1269 0.3054
vn 0.9468 -0.3157 0.0617
vn 0.9518 -0.3043 0.0379
vn 0.5107 0.0115 -0.8597
vn 0.3992 -0.2908 -0.8696
vn 0.6726 -0.1714 0.7199
vn 0.6369 -0.2649 0.7240
vn 0.7072 -0.4324 0.5594
vn 0.9331 -0.3593 0.0127
vn 0.8561 -0.5167 -0.0003
vn 0.8171 -0.5710 -0.0788
vn 0.2674 -0.8135 -0.5165
vn 0.6216 -0.7724 -0.1301
vn 0.5643 -0.8237 -0.0549
vn 0.4536 -0.7797 0.4317
usemtl None
s off
f 1//1 7//1 9//1
f 1//2 9//2 12//2
f 2//3 11//3 16//3
f 1//4 12//4 15//4
f 2//5 16//5 13//5
f 3//6 18//6 22//6
f 4//7 20//7 26//7
f 5//8 21//8 23//8
f 23//9 26//9 6//9
f 23//10 21//10 26//10
f 21//11 4//11 26//11
f 26//12 25//12 6//12
f 26//13 20//13 25//13
f 25//14 24//14 6//14
f 24//15 22//15 6//15
f 24//16 19//16 22//16
f 19//17 3//17 22//17
f 22//18 23//18 6//18
f 22//19 18//19 23//19
f 18//20 5//20 23//20
f 13//21 21//21 5//21
f 13//22 16//22 21//22
f 16//23 4//23 21//23
f 17//24 20//24 4//24
f 14//25 3//25 19//25
f 15//26 18//26 3//26
f 15//27 12//27 18//27
f 12//28 5//28 18//28
f 16//29 17//29 4//29
f 16//30 11//30 17//30
f 14//31 15//31 3//31
f 14//32 8//32 15//32
f 8//33 1//33 15//33
f 12//34 13//34 5//34
f 12//35 9//35 13//35
f 9//36 2//36 13//36
f 10//37 11//37 2//37
f 9//38 10//38 2//38
f 9//39 7//39 10//39
f 7//40 1//40 8//40
